<mxfile host="app.diagrams.net" agent="Mozilla/5.0 (Macintosh; Intel Mac OS X 10_15_7) AppleWebKit/537.36 (KHTML, like Gecko) Chrome/129.0.0.0 Safari/537.36" version="24.7.17">
  <diagram id="C5RBs43oDa-KdzZeNtuy" name="Page-1">
    <mxGraphModel dx="934" dy="540" grid="1" gridSize="10" guides="1" tooltips="1" connect="1" arrows="1" fold="1" page="1" pageScale="1" pageWidth="827" pageHeight="1169" math="0" shadow="0">
      <root>
        <mxCell id="WIyWlLk6GJQsqaUBKTNV-0" />
        <mxCell id="WIyWlLk6GJQsqaUBKTNV-1" parent="WIyWlLk6GJQsqaUBKTNV-0" />
        <mxCell id="9pWpyhSm6ccDW9NmfL-g-0" value="" style="whiteSpace=wrap;html=1;aspect=fixed;" vertex="1" parent="WIyWlLk6GJQsqaUBKTNV-1">
          <mxGeometry x="450" y="280" width="340" height="340" as="geometry" />
        </mxCell>
        <mxCell id="9pWpyhSm6ccDW9NmfL-g-2" value="" style="whiteSpace=wrap;html=1;aspect=fixed;" vertex="1" parent="WIyWlLk6GJQsqaUBKTNV-1">
          <mxGeometry x="960" y="280" width="345" height="345" as="geometry" />
        </mxCell>
        <mxCell id="9pWpyhSm6ccDW9NmfL-g-5" value="" style="rounded=1;arcSize=9;fillColor=#F7F8F9;align=left;spacingLeft=5;strokeColor=#DEE1E6;html=1;strokeWidth=2;fontSize=12" vertex="1" parent="WIyWlLk6GJQsqaUBKTNV-1">
          <mxGeometry x="460" y="300" width="310" height="40" as="geometry" />
        </mxCell>
        <mxCell id="9pWpyhSm6ccDW9NmfL-g-6" value="&lt;span style=&quot;color: rgba(0, 0, 0, 0); font-family: monospace; font-size: 0px;&quot;&gt;%3CmxGraphModel%3E%3Croot%3E%3CmxCell%20id%3D%220%22%2F%3E%3CmxCell%20id%3D%221%22%20parent%3D%220%22%2F%3E%3CmxCell%20id%3D%222%22%20value%3D%22Next.js%22%20style%3D%22text%3BstrokeColor%3Dnone%3BfillColor%3Dnone%3Bhtml%3D1%3BfontSize%3D24%3BfontStyle%3D1%3BverticalAlign%3Dmiddle%3Balign%3Dcenter%3B%22%20vertex%3D%221%22%20parent%3D%221%22%3E%3CmxGeometry%20x%3D%2245%22%20y%3D%22290%22%20width%3D%22100%22%20height%3D%2240%22%20as%3D%22geometry%22%2F%3E%3C%2FmxCell%3E%3C%2Froot%3E%3C%2FmxGraphModel%3E&lt;/span&gt;" style="rounded=1;arcSize=9;fillColor=#F7F8F9;align=left;spacingLeft=5;strokeColor=#DEE1E6;html=1;strokeWidth=2;fontSize=12" vertex="1" parent="WIyWlLk6GJQsqaUBKTNV-1">
          <mxGeometry x="975" y="300" width="318" height="40" as="geometry" />
        </mxCell>
        <mxCell id="9pWpyhSm6ccDW9NmfL-g-7" value="&amp;nbsp; &amp;nbsp; &amp;nbsp; &amp;nbsp; &amp;nbsp; &amp;nbsp; &amp;nbsp; &amp;nbsp; &amp;nbsp; &amp;nbsp;sanity.js" style="rounded=1;arcSize=9;fillColor=#F7F8F9;align=left;spacingLeft=5;strokeColor=#DEE1E6;html=1;strokeWidth=2;fontSize=12" vertex="1" parent="WIyWlLk6GJQsqaUBKTNV-1">
          <mxGeometry x="780" y="400" width="190" height="40" as="geometry" />
        </mxCell>
        <mxCell id="9pWpyhSm6ccDW9NmfL-g-12" value="" style="rounded=0;whiteSpace=wrap;html=1;" vertex="1" parent="WIyWlLk6GJQsqaUBKTNV-1">
          <mxGeometry x="670" y="950" width="340" height="150" as="geometry" />
        </mxCell>
        <mxCell id="9pWpyhSm6ccDW9NmfL-g-11" value="AWS S3" style="rounded=1;arcSize=9;fillColor=#F7F8F9;align=left;spacingLeft=5;strokeColor=#DEE1E6;html=1;strokeWidth=2;fontSize=12" vertex="1" parent="WIyWlLk6GJQsqaUBKTNV-1">
          <mxGeometry x="690" y="960" width="140" height="40" as="geometry" />
        </mxCell>
        <mxCell id="9pWpyhSm6ccDW9NmfL-g-15" value="" style="rounded=0;whiteSpace=wrap;html=1;labelBackgroundColor=#EDEDED;fillColor=#0050ef;fontColor=#ffffff;strokeColor=#001DBC;" vertex="1" parent="WIyWlLk6GJQsqaUBKTNV-1">
          <mxGeometry x="710" y="1020" width="90" height="60" as="geometry" />
        </mxCell>
        <mxCell id="9pWpyhSm6ccDW9NmfL-g-16" value="" style="rounded=0;whiteSpace=wrap;html=1;labelBackgroundColor=#EDEDED;fillColor=#0050ef;fontColor=#ffffff;strokeColor=#001DBC;" vertex="1" parent="WIyWlLk6GJQsqaUBKTNV-1">
          <mxGeometry x="880" y="1020" width="90" height="60" as="geometry" />
        </mxCell>
        <mxCell id="9pWpyhSm6ccDW9NmfL-g-18" value="&lt;b style=&quot;font-size: 9px;&quot;&gt;&lt;font style=&quot;font-size: 9px;&quot;&gt;PRIVATE&lt;/font&gt;&lt;/b&gt;&lt;div style=&quot;font-size: 9px;&quot;&gt;&lt;b&gt;&lt;font style=&quot;font-size: 9px;&quot;&gt;BUCKET&lt;/font&gt;&lt;/b&gt;&lt;/div&gt;" style="text;html=1;align=center;verticalAlign=middle;whiteSpace=wrap;rounded=0;fontColor=#F7F7F7;" vertex="1" parent="WIyWlLk6GJQsqaUBKTNV-1">
          <mxGeometry x="725" y="1025" width="60" height="30" as="geometry" />
        </mxCell>
        <mxCell id="9pWpyhSm6ccDW9NmfL-g-20" value="&lt;div style=&quot;font-size: 9px;&quot;&gt;&lt;div&gt;&lt;b&gt;PUBLIC&lt;/b&gt;&lt;/div&gt;&lt;div&gt;&lt;b&gt;BUCKET&lt;/b&gt;&lt;/div&gt;&lt;/div&gt;" style="text;html=1;align=center;verticalAlign=middle;whiteSpace=wrap;rounded=0;fontColor=#F7F7F7;" vertex="1" parent="WIyWlLk6GJQsqaUBKTNV-1">
          <mxGeometry x="907.5" y="1030" width="32.5" height="20" as="geometry" />
        </mxCell>
        <mxCell id="9pWpyhSm6ccDW9NmfL-g-21" value="" style="rounded=0;whiteSpace=wrap;html=1;" vertex="1" parent="WIyWlLk6GJQsqaUBKTNV-1">
          <mxGeometry x="483" y="665" width="700" height="220" as="geometry" />
        </mxCell>
        <mxCell id="9pWpyhSm6ccDW9NmfL-g-25" value="&lt;font color=&quot;#e3e3e3&quot; style=&quot;font-size: 8px;&quot;&gt;Restrict audio files&lt;/font&gt;" style="text;html=1;align=center;verticalAlign=middle;whiteSpace=wrap;rounded=0;" vertex="1" parent="WIyWlLk6GJQsqaUBKTNV-1">
          <mxGeometry x="705" y="1050" width="100" height="30" as="geometry" />
        </mxCell>
        <mxCell id="9pWpyhSm6ccDW9NmfL-g-26" value="&lt;font color=&quot;#e3e3e3&quot;&gt;&lt;span style=&quot;font-size: 8px;&quot;&gt;Preview audio files&lt;/span&gt;&lt;/font&gt;" style="text;html=1;align=center;verticalAlign=middle;whiteSpace=wrap;rounded=0;" vertex="1" parent="WIyWlLk6GJQsqaUBKTNV-1">
          <mxGeometry x="875" y="1050" width="100" height="30" as="geometry" />
        </mxCell>
        <mxCell id="9pWpyhSm6ccDW9NmfL-g-27" value="" style="rounded=1;arcSize=9;fillColor=#F7F8F9;align=left;spacingLeft=5;strokeColor=#DEE1E6;html=1;strokeWidth=2;fontSize=12" vertex="1" parent="WIyWlLk6GJQsqaUBKTNV-1">
          <mxGeometry x="975" y="350" width="318" height="260" as="geometry" />
        </mxCell>
        <mxCell id="9pWpyhSm6ccDW9NmfL-g-28" value="&lt;font style=&quot;font-size: 15px;&quot;&gt;Content&lt;/font&gt;" style="text;strokeColor=none;fillColor=none;html=1;fontSize=24;fontStyle=1;verticalAlign=middle;align=center;" vertex="1" parent="WIyWlLk6GJQsqaUBKTNV-1">
          <mxGeometry x="970" y="360" width="100" height="40" as="geometry" />
        </mxCell>
        <mxCell id="9pWpyhSm6ccDW9NmfL-g-29" value="- Artwork, Metadata&lt;div&gt;- NFT Address&lt;/div&gt;" style="text;html=1;align=center;verticalAlign=middle;whiteSpace=wrap;rounded=0;" vertex="1" parent="WIyWlLk6GJQsqaUBKTNV-1">
          <mxGeometry x="982" y="400" width="200" height="130" as="geometry" />
        </mxCell>
        <mxCell id="9pWpyhSm6ccDW9NmfL-g-31" value="" style="rounded=1;arcSize=9;fillColor=#F7F8F9;align=left;spacingLeft=5;strokeColor=#DEE1E6;html=1;strokeWidth=2;fontSize=12" vertex="1" parent="WIyWlLk6GJQsqaUBKTNV-1">
          <mxGeometry x="460" y="350" width="310" height="260" as="geometry" />
        </mxCell>
        <mxCell id="9pWpyhSm6ccDW9NmfL-g-33" value="" style="rounded=1;arcSize=9;fillColor=#F7F8F9;align=left;spacingLeft=5;strokeColor=#DEE1E6;html=1;strokeWidth=2;fontSize=12" vertex="1" parent="WIyWlLk6GJQsqaUBKTNV-1">
          <mxGeometry x="490" y="680" width="230" height="40" as="geometry" />
        </mxCell>
        <mxCell id="9pWpyhSm6ccDW9NmfL-g-35" value="" style="rounded=0;whiteSpace=wrap;html=1;" vertex="1" parent="WIyWlLk6GJQsqaUBKTNV-1">
          <mxGeometry x="725" y="100" width="245" height="130" as="geometry" />
        </mxCell>
        <mxCell id="9pWpyhSm6ccDW9NmfL-g-36" value="&lt;div&gt;&lt;br&gt;&lt;/div&gt;" style="rounded=1;arcSize=9;fillColor=#F7F8F9;align=left;spacingLeft=5;strokeColor=#DEE1E6;html=1;strokeWidth=2;fontSize=12" vertex="1" parent="WIyWlLk6GJQsqaUBKTNV-1">
          <mxGeometry x="732" y="110" width="190" height="30" as="geometry" />
        </mxCell>
        <mxCell id="9pWpyhSm6ccDW9NmfL-g-38" value="" style="rounded=0;whiteSpace=wrap;html=1;rotation=90;" vertex="1" parent="WIyWlLk6GJQsqaUBKTNV-1">
          <mxGeometry x="460" y="396.25" width="73" height="47.5" as="geometry" />
        </mxCell>
        <mxCell id="9pWpyhSm6ccDW9NmfL-g-39" value="" style="rounded=0;whiteSpace=wrap;html=1;rotation=90;" vertex="1" parent="WIyWlLk6GJQsqaUBKTNV-1">
          <mxGeometry x="546.75" y="450" width="106.5" height="188.25" as="geometry" />
        </mxCell>
        <mxCell id="9pWpyhSm6ccDW9NmfL-g-40" value="" style="rounded=0;whiteSpace=wrap;html=1;rotation=90;" vertex="1" parent="WIyWlLk6GJQsqaUBKTNV-1">
          <mxGeometry x="519.88" y="395.63" width="73" height="48.75" as="geometry" />
        </mxCell>
        <mxCell id="9pWpyhSm6ccDW9NmfL-g-41" value="Next.js" style="text;strokeColor=none;fillColor=none;html=1;fontSize=24;fontStyle=1;verticalAlign=middle;align=center;" vertex="1" parent="WIyWlLk6GJQsqaUBKTNV-1">
          <mxGeometry x="465" y="300" width="100" height="40" as="geometry" />
        </mxCell>
        <mxCell id="9pWpyhSm6ccDW9NmfL-g-42" value="Netlifly" style="text;strokeColor=none;fillColor=none;html=1;fontSize=24;fontStyle=1;verticalAlign=middle;align=center;" vertex="1" parent="WIyWlLk6GJQsqaUBKTNV-1">
          <mxGeometry x="728" y="105" width="100" height="40" as="geometry" />
        </mxCell>
        <mxCell id="9pWpyhSm6ccDW9NmfL-g-43" value="Sanity" style="text;strokeColor=none;fillColor=none;html=1;fontSize=24;fontStyle=1;verticalAlign=middle;align=center;" vertex="1" parent="WIyWlLk6GJQsqaUBKTNV-1">
          <mxGeometry x="972" y="300" width="100" height="40" as="geometry" />
        </mxCell>
        <mxCell id="9pWpyhSm6ccDW9NmfL-g-44" value="Payments Methods" style="text;strokeColor=none;fillColor=none;html=1;fontSize=24;fontStyle=1;verticalAlign=middle;align=center;" vertex="1" parent="WIyWlLk6GJQsqaUBKTNV-1">
          <mxGeometry x="555" y="680" width="100" height="40" as="geometry" />
        </mxCell>
        <mxCell id="9pWpyhSm6ccDW9NmfL-g-50" value="&amp;nbsp; &amp;nbsp; Netlifly:" style="text;html=1;align=center;verticalAlign=middle;whiteSpace=wrap;rounded=0;" vertex="1" parent="WIyWlLk6GJQsqaUBKTNV-1">
          <mxGeometry x="496" y="501" width="60" height="30" as="geometry" />
        </mxCell>
        <mxCell id="9pWpyhSm6ccDW9NmfL-g-52" value="" style="rounded=1;arcSize=9;fillColor=#F7F8F9;align=left;spacingLeft=5;strokeColor=#DEE1E6;html=1;strokeWidth=2;fontSize=12" vertex="1" parent="WIyWlLk6GJQsqaUBKTNV-1">
          <mxGeometry x="500" y="740" width="267" height="120" as="geometry" />
        </mxCell>
        <mxCell id="9pWpyhSm6ccDW9NmfL-g-55" value="&lt;span style=&quot;font-size: 20px;&quot;&gt;ThirdWeb&lt;/span&gt;" style="text;strokeColor=none;fillColor=none;html=1;fontSize=24;fontStyle=1;verticalAlign=middle;align=center;" vertex="1" parent="WIyWlLk6GJQsqaUBKTNV-1">
          <mxGeometry x="510" y="755" width="100" height="40" as="geometry" />
        </mxCell>
        <mxCell id="9pWpyhSm6ccDW9NmfL-g-56" value="" style="rounded=1;arcSize=9;fillColor=#F7F8F9;align=left;spacingLeft=5;strokeColor=#DEE1E6;html=1;strokeWidth=2;fontSize=12" vertex="1" parent="WIyWlLk6GJQsqaUBKTNV-1">
          <mxGeometry x="888.5" y="740" width="267" height="120" as="geometry" />
        </mxCell>
        <mxCell id="9pWpyhSm6ccDW9NmfL-g-57" value="&lt;span style=&quot;font-size: 20px;&quot;&gt;CrossMint&lt;/span&gt;" style="text;strokeColor=none;fillColor=none;html=1;fontSize=24;fontStyle=1;verticalAlign=middle;align=center;" vertex="1" parent="WIyWlLk6GJQsqaUBKTNV-1">
          <mxGeometry x="907.5" y="755" width="100" height="40" as="geometry" />
        </mxCell>
        <mxCell id="9pWpyhSm6ccDW9NmfL-g-59" value="Pages" style="text;html=1;align=center;verticalAlign=middle;whiteSpace=wrap;rounded=0;" vertex="1" parent="WIyWlLk6GJQsqaUBKTNV-1">
          <mxGeometry x="465" y="390" width="60" height="30" as="geometry" />
        </mxCell>
        <mxCell id="9pWpyhSm6ccDW9NmfL-g-60" value="Compo&lt;div&gt;nents&lt;/div&gt;" style="text;html=1;align=center;verticalAlign=middle;whiteSpace=wrap;rounded=0;" vertex="1" parent="WIyWlLk6GJQsqaUBKTNV-1">
          <mxGeometry x="543.13" y="396.25" width="26.5" height="30" as="geometry" />
        </mxCell>
        <mxCell id="9pWpyhSm6ccDW9NmfL-g-61" value="Conjunction of serverless functions, that manage NFT&#39;s distribution. &lt;a href=&quot;https://github.com/TABOU1-NFT/tabou1-design-integration&quot;&gt;Docs&lt;/a&gt;." style="text;html=1;align=center;verticalAlign=middle;whiteSpace=wrap;rounded=0;" vertex="1" parent="WIyWlLk6GJQsqaUBKTNV-1">
          <mxGeometry x="510" y="530" width="180" height="60" as="geometry" />
        </mxCell>
        <mxCell id="9pWpyhSm6ccDW9NmfL-g-66" value="" style="rounded=0;whiteSpace=wrap;html=1;rotation=90;" vertex="1" parent="WIyWlLk6GJQsqaUBKTNV-1">
          <mxGeometry x="580.25" y="396.25" width="73" height="47.5" as="geometry" />
        </mxCell>
        <mxCell id="9pWpyhSm6ccDW9NmfL-g-67" value="Utils" style="text;html=1;align=center;verticalAlign=middle;whiteSpace=wrap;rounded=0;" vertex="1" parent="WIyWlLk6GJQsqaUBKTNV-1">
          <mxGeometry x="587" y="390" width="60" height="20" as="geometry" />
        </mxCell>
        <mxCell id="9pWpyhSm6ccDW9NmfL-g-68" value="" style="rounded=0;whiteSpace=wrap;html=1;rotation=90;" vertex="1" parent="WIyWlLk6GJQsqaUBKTNV-1">
          <mxGeometry x="637" y="396.88" width="73" height="47.5" as="geometry" />
        </mxCell>
      </root>
    </mxGraphModel>
  </diagram>
</mxfile>
